<?xml version="1.0" encoding="UTF-8"?>
<svg xmlns="http://www.w3.org/2000/svg" xmlns:xlink="http://www.w3.org/1999/xlink" width="62.25pt" height="44.999999pt" viewBox="0 0 62.25 44.999999" version="1.2">
<defs>
<clipPath id="clip1">
  <path d="M 2.964844 0.964844 L 58.617188 0.964844 L 58.617188 44.730469 L 2.964844 44.730469 Z M 2.964844 0.964844 "/>
</clipPath>
</defs>
<g id="surface1">
<g clip-path="url(#clip1)" clip-rule="nonzero">
<path style=" stroke:none;fill-rule:nonzero;fill:rgb(22.349548%,74.508667%,81.17981%);fill-opacity:1;" d="M 2.964844 45.125 L 2.964844 0.960938 L 58.617188 0.960938 L 58.617188 45.125 L 2.964844 45.125 "/>
</g>
<path style=" stroke:none;fill-rule:nonzero;fill:rgb(82.348633%,94.119263%,92.549133%);fill-opacity:1;" d="M 55.476562 41.667969 L 6.105469 41.667969 L 6.105469 4.417969 L 55.476562 4.417969 L 55.476562 41.667969 "/>
<path style=" stroke:none;fill-rule:nonzero;fill:rgb(16.468811%,18.818665%,22.749329%);fill-opacity:1;" d="M 39.214844 37.433594 L 16.058594 32.410156 L 32.339844 15.960938 L 39.378906 23.046875 L 39.214844 37.433594 "/>
<path style=" stroke:none;fill-rule:nonzero;fill:rgb(22.349548%,74.508667%,81.17981%);fill-opacity:1;" d="M 53.1875 39.449219 L 8.394531 39.449219 L 8.507812 30.730469 L 19.59375 19.695312 L 28.566406 28.738281 L 45.152344 12.207031 L 53.1875 20.207031 L 53.1875 39.449219 "/>
<path style=" stroke:none;fill-rule:nonzero;fill:rgb(97.648621%,67.059326%,10.978699%);fill-opacity:1;" d="M 19.5 12.960938 C 19.5 15.042969 17.84375 16.726562 15.800781 16.726562 C 13.746094 16.726562 12.09375 15.042969 12.09375 12.960938 C 12.09375 10.878906 13.746094 9.195312 15.800781 9.195312 C 17.84375 9.195312 19.5 10.878906 19.5 12.960938 "/>
</g>
</svg>
